<?xml version="1.0" encoding="UTF-8" standalone="no"?>
<!DOCTYPE svg PUBLIC "-//W3C//DTD SVG 1.1//EN"
 "http://www.w3.org/Graphics/SVG/1.1/DTD/svg11.dtd">
<!-- Generated by graphviz version 9.0.0 (20230911.1827)
 -->
<!-- Title: WordsXF Pages: 1 -->
<svg width="321pt" height="141pt"
 viewBox="0.00 0.00 321.28 141.04" xmlns="http://www.w3.org/2000/svg" xmlns:xlink="http://www.w3.org/1999/xlink">
<g id="graph0" class="graph" transform="scale(1 1) rotate(0) translate(4 137.04)">
<title>WordsXF</title>
<polygon fill="white" stroke="none" points="-4,4 -4,-137.04 317.28,-137.04 317.28,4 -4,4"/>
<!-- Vacant -->
<g id="node1" class="node">
<title>Vacant</title>
<ellipse fill="none" stroke="black" cx="229.28" cy="-48.89" rx="44.89" ry="44.89"/>
<ellipse fill="none" stroke="black" cx="229.28" cy="-48.89" rx="48.89" ry="48.89"/>
<text text-anchor="middle" x="229.28" y="-44.22" font-family="Times,serif" font-size="14.00">Vacant</text>
</g>
<!-- Vacant&#45;&gt;Vacant -->
<g id="edge3" class="edge">
<title>Vacant&#45;&gt;Vacant</title>
<path fill="none" stroke="black" d="M211.51,-94.86C212.6,-106.79 218.52,-115.79 229.28,-115.79 236.34,-115.79 241.31,-111.91 244.21,-105.88"/>
<polygon fill="black" stroke="black" points="247.57,-106.88 246.67,-96.32 240.79,-105.13 247.57,-106.88"/>
<text text-anchor="middle" x="229.28" y="-119.74" font-family="Times,serif" font-size="14.00">Union{Nothing,String}</text>
</g>
<!-- Chunk -->
<g id="node2" class="node">
<title>Chunk</title>
<ellipse fill="none" stroke="black" cx="43.32" cy="-48.89" rx="43.32" ry="43.32"/>
<text text-anchor="middle" x="43.32" y="-44.22" font-family="Times,serif" font-size="14.00">Chunk</text>
</g>
<!-- Chunk&#45;&gt;Vacant -->
<g id="edge2" class="edge">
<title>Chunk&#45;&gt;Vacant</title>
<path fill="none" stroke="black" d="M86.98,-48.89C111.21,-48.89 141.91,-48.89 168.5,-48.89"/>
<polygon fill="black" stroke="black" points="168.49,-52.39 178.49,-48.89 168.49,-45.39 168.49,-52.39"/>
<text text-anchor="middle" x="133.51" y="-52.84" font-family="Times,serif" font-size="14.00">Nothing</text>
</g>
<!-- Chunk&#45;&gt;Chunk -->
<g id="edge1" class="edge">
<title>Chunk&#45;&gt;Chunk</title>
<path fill="none" stroke="black" d="M26.46,-89.29C27.04,-101.08 32.66,-110.21 43.32,-110.21 50.31,-110.21 55.13,-106.28 57.79,-100.24"/>
<polygon fill="black" stroke="black" points="61.15,-101.28 59.85,-90.77 54.31,-99.79 61.15,-101.28"/>
<text text-anchor="middle" x="43.32" y="-114.16" font-family="Times,serif" font-size="14.00">Nothing</text>
</g>
</g>
</svg>
