<?xml version="1.0" encoding="UTF-8" standalone="no"?>
<!DOCTYPE svg PUBLIC "-//W3C//DTD SVG 1.1//EN"
 "http://www.w3.org/Graphics/SVG/1.1/DTD/svg11.dtd">
<!-- Generated by graphviz version 8.0.4 (20230422.2207)
 -->
<!-- Title: SingleStepConsecutive Pages: 1 -->
<svg width="621pt" height="171pt"
 viewBox="0.00 0.00 620.70 170.82" xmlns="http://www.w3.org/2000/svg" xmlns:xlink="http://www.w3.org/1999/xlink">
<g id="graph0" class="graph" transform="scale(1 1) rotate(0) translate(4 166.82)">
<title>SingleStepConsecutive</title>
<polygon fill="white" stroke="none" points="-4,4 -4,-166.82 616.7,-166.82 616.7,4 -4,4"/>
<!-- Buffer{N&#45;1} -->
<g id="node1" class="node">
<title>Buffer{N&#45;1}</title>
<ellipse fill="none" stroke="black" cx="548.69" cy="-64.01" rx="60.01" ry="60.01"/>
<ellipse fill="none" stroke="black" cx="548.69" cy="-64.01" rx="64.01" ry="64.01"/>
<text text-anchor="middle" x="548.69" y="-59.11" font-family="Times,serif" font-size="14.00">Buffer{N&#45;1}</text>
</g>
<!-- Buffer{N&#45;1}&#45;&gt;Buffer{N&#45;1} -->
<g id="edge5" class="edge">
<title>Buffer{N&#45;1}&#45;&gt;Buffer{N&#45;1}</title>
<path fill="none" stroke="black" d="M534.07,-126.59C535.92,-138.01 540.79,-146.02 548.69,-146.02 553.87,-146.02 557.75,-142.57 560.33,-136.97"/>
<polygon fill="black" stroke="black" points="563.92,-138.16 563.31,-127.59 557.19,-136.23 563.92,-138.16"/>
<text text-anchor="middle" x="548.69" y="-149.52" font-family="Times,serif" font-size="14.00">NTuple{N,Any}</text>
</g>
<!--  ...  -->
<g id="node2" class="node">
<title> ... </title>
<text text-anchor="middle" x="281.66" y="-59.11" font-family="Times,serif" font-size="14.00"> ... </text>
</g>
<!-- Buffer{N&#45;2} -->
<g id="node5" class="node">
<title>Buffer{N&#45;2}</title>
<ellipse fill="none" stroke="black" cx="387.67" cy="-64.01" rx="60.01" ry="60.01"/>
<text text-anchor="middle" x="387.67" y="-59.11" font-family="Times,serif" font-size="14.00">Buffer{N&#45;2}</text>
</g>
<!--  ... &#45;&gt;Buffer{N&#45;2} -->
<g id="edge3" class="edge">
<title> ... &#45;&gt;Buffer{N&#45;2}</title>
<path fill="none" stroke="black" d="M290.47,-64.01C296.68,-64.01 306.02,-64.01 316.49,-64.01"/>
<polygon fill="black" stroke="black" points="316.25,-67.51 326.25,-64.01 316.25,-60.51 316.25,-67.51"/>
</g>
<!-- Buffer{0} -->
<g id="node3" class="node">
<title>Buffer{0}</title>
<ellipse fill="none" stroke="black" cx="49.66" cy="-64.01" rx="49.66" ry="49.66"/>
<text text-anchor="middle" x="49.66" y="-59.11" font-family="Times,serif" font-size="14.00">Buffer{0}</text>
</g>
<!-- Buffer{1} -->
<g id="node4" class="node">
<title>Buffer{1}</title>
<ellipse fill="none" stroke="black" cx="185.99" cy="-64.01" rx="49.66" ry="49.66"/>
<text text-anchor="middle" x="185.99" y="-59.11" font-family="Times,serif" font-size="14.00">Buffer{1}</text>
</g>
<!-- Buffer{0}&#45;&gt;Buffer{1} -->
<g id="edge1" class="edge">
<title>Buffer{0}&#45;&gt;Buffer{1}</title>
<path fill="none" stroke="black" d="M99.54,-64.01C107.87,-64.01 116.61,-64.01 125.19,-64.01"/>
<polygon fill="black" stroke="black" points="124.93,-67.51 134.93,-64.01 124.93,-60.51 124.93,-67.51"/>
</g>
<!-- Buffer{1}&#45;&gt; ...  -->
<g id="edge2" class="edge">
<title>Buffer{1}&#45;&gt; ... </title>
<path fill="none" stroke="black" d="M236.02,-64.01C245.21,-64.01 254.28,-64.01 261.82,-64.01"/>
<polygon fill="black" stroke="black" points="261.82,-67.51 271.82,-64.01 261.82,-60.51 261.82,-67.51"/>
</g>
<!-- Buffer{N&#45;2}&#45;&gt;Buffer{N&#45;1} -->
<g id="edge4" class="edge">
<title>Buffer{N&#45;2}&#45;&gt;Buffer{N&#45;1}</title>
<path fill="none" stroke="black" d="M447.88,-64.01C456.26,-64.01 464.97,-64.01 473.59,-64.01"/>
<polygon fill="black" stroke="black" points="473.43,-67.51 483.43,-64.01 473.43,-60.51 473.43,-67.51"/>
</g>
</g>
</svg>
