<?xml version="1.0" encoding="UTF-8" standalone="no"?>
<!DOCTYPE svg PUBLIC "-//W3C//DTD SVG 1.1//EN"
 "http://www.w3.org/Graphics/SVG/1.1/DTD/svg11.dtd">
<!-- Generated by graphviz version 8.0.4 (20230422.2207)
 -->
<!-- Title: WordsXF Pages: 1 -->
<svg width="270pt" height="127pt"
 viewBox="0.00 0.00 269.55 126.68" xmlns="http://www.w3.org/2000/svg" xmlns:xlink="http://www.w3.org/1999/xlink">
<g id="graph0" class="graph" transform="scale(1 1) rotate(0) translate(4 122.68)">
<title>WordsXF</title>
<polygon fill="white" stroke="none" points="-4,4 -4,-122.68 265.55,-122.68 265.55,4 -4,4"/>
<!-- Vacant -->
<g id="node1" class="node">
<title>Vacant</title>
<ellipse fill="none" stroke="black" cx="196.05" cy="-41.94" rx="37.94" ry="37.94"/>
<ellipse fill="none" stroke="black" cx="196.05" cy="-41.94" rx="41.94" ry="41.94"/>
<text text-anchor="middle" x="196.05" y="-37.04" font-family="Times,serif" font-size="14.00">Vacant</text>
</g>
<!-- Vacant&#45;&gt;Vacant -->
<g id="edge3" class="edge">
<title>Vacant&#45;&gt;Vacant</title>
<path fill="none" stroke="black" d="M180.64,-81.42C181.18,-92.95 186.31,-101.88 196.05,-101.88 202.45,-101.88 206.86,-98.03 209.28,-92.13"/>
<polygon fill="black" stroke="black" points="212.9,-92.92 211.47,-82.42 206.04,-91.52 212.9,-92.92"/>
<text text-anchor="middle" x="196.05" y="-105.38" font-family="Times,serif" font-size="14.00">Union{Nothing,String}</text>
</g>
<!-- Chunk -->
<g id="node2" class="node">
<title>Chunk</title>
<ellipse fill="none" stroke="black" cx="36.56" cy="-41.94" rx="36.56" ry="36.56"/>
<text text-anchor="middle" x="36.56" y="-37.04" font-family="Times,serif" font-size="14.00">Chunk</text>
</g>
<!-- Chunk&#45;&gt;Vacant -->
<g id="edge2" class="edge">
<title>Chunk&#45;&gt;Vacant</title>
<path fill="none" stroke="black" d="M73.3,-41.94C93.89,-41.94 120.14,-41.94 142.99,-41.94"/>
<polygon fill="black" stroke="black" points="142.89,-45.44 152.89,-41.94 142.89,-38.44 142.89,-45.44"/>
<text text-anchor="middle" x="113.62" y="-45.44" font-family="Times,serif" font-size="14.00">Nothing</text>
</g>
<!-- Chunk&#45;&gt;Chunk -->
<g id="edge1" class="edge">
<title>Chunk&#45;&gt;Chunk</title>
<path fill="none" stroke="black" d="M22.11,-76.04C22.11,-87.4 26.93,-96.5 36.56,-96.5 42.88,-96.5 47.13,-92.58 49.3,-86.68"/>
<polygon fill="black" stroke="black" points="52.88,-87.47 51.01,-77.04 45.97,-86.36 52.88,-87.47"/>
<text text-anchor="middle" x="36.56" y="-100" font-family="Times,serif" font-size="14.00">Nothing</text>
</g>
</g>
</svg>
